<svg width="60" height="19" viewBox="0 0 60 19" fill="none" xmlns="http://www.w3.org/2000/svg">
<path d="M19.2068 15.7888V6.79277L25.4249 15.7888H26.8966V2.91107H25.057V11.9806L18.7837 2.91107L17.3488 2.89267V15.7888H19.2068Z" fill="black"/>
<path d="M30.7771 13.9307V4.78753H32.1839C35.1641 4.78753 36.6727 7.08711 36.6727 9.3683C36.6727 11.6495 35.1641 13.9307 32.1839 13.9307H30.7771ZM28.919 2.92946V15.7888H32.1839C36.3967 15.7888 38.5123 12.5877 38.5123 9.3683C38.5123 6.14888 36.3967 2.92946 32.1839 2.92946H28.919Z" fill="black"/>
<path d="M42.0704 10.2881H47.9021V8.41168H42.0704V4.78753H48.0309V2.92946H40.1939V15.7888H48.0493V13.9307H42.0704V10.2881Z" fill="black"/>
<path d="M52.1483 10.141L56.8395 15.7888H59.2494L55.1838 10.9504C57.3914 10.5641 58.5136 8.83481 58.5136 7.01353C58.5136 4.9715 57.1154 2.91107 54.3191 2.91107H49.628V15.7888H51.4676V4.78753H54.3191C55.8829 4.78753 56.6555 5.90973 56.6555 7.01353C56.6555 8.13573 55.8829 9.25793 54.3191 9.25793H52.1483V10.141Z" fill="black"/>
<mask id="mask0" mask-type="alpha" maskUnits="userSpaceOnUse" x="0" y="0" width="19" height="19">
<circle cx="9.37384" cy="9.37372" r="6.62822" transform="rotate(45 9.37384 9.37372)" fill="#C4C4C4"/>
</mask>
<g mask="url(#mask0)">
<circle cx="9.3739" cy="9.37377" r="4.32864" transform="rotate(45 9.3739 9.37377)" stroke="#8AB65A" stroke-width="0.27054"/>
<circle cx="9.3739" cy="9.37378" r="1.48797" transform="rotate(45 9.3739 9.37378)" stroke="#FC121B" stroke-width="0.54108"/>
<circle cx="9.3739" cy="9.37375" r="2.16432" transform="rotate(45 9.3739 9.37375)" stroke="#F85D1F" stroke-width="0.27054"/>
<path d="M4.97402 13.9649C2.43837 11.4293 2.39554 7.361 4.87837 4.87817C7.3612 2.39533 11.4295 2.43816 13.9651 4.97382" stroke="#1AA5B8" stroke-width="1.3527"/>
<circle cx="9.3739" cy="9.37376" r="3.65229" transform="rotate(45 9.3739 9.37376)" stroke="#F4C52E" stroke-width="0.54108"/>
<rect width="7.03403" height="13.2564" transform="matrix(-0.707107 -0.707107 -0.707107 0.707107 19.5128 10.1389)" fill="white"/>
<path d="M5.45458 13.489C7.61916 15.6536 11.1725 15.6097 13.3912 13.391C15.6099 11.1723 15.6538 7.61899 13.4892 5.45441" stroke="black" stroke-width="1.89378"/>
<rect x="13.5825" y="4.20862" width="1.3527" height="13.2564" transform="rotate(45 13.5825 4.20862)" fill="white"/>
</g>
</svg>
